<?xml version="1.0"?>
<svg xmlns="http://www.w3.org/2000/svg" viewBox="0 0 90 90" width="512" height="512"><g id="_6-Error" data-name="6-Error"><g id="_Group_" data-name="&lt;Group&gt;"><polygon points="52 75 52.5 79 45.5 79 46 75 49 75 52 75" style="fill:#fff"/><path d="M52.5,79l.5,4-.5,5,.06.35a43.193,43.193,0,0,1-6.96.64L45,83l.5-4Z" style="fill:#58abfb"/><rect x="47" y="56" width="4" height="4" rx="1" ry="1" style="fill:#fff"/><rect x="47" y="38" width="4" height="14" rx="1" ry="1" style="fill:#fff"/><path d="M49,33A16,16,0,1,1,33,49,16,16,0,0,1,49,33Zm2,26V57a1,1,0,0,0-1-1H48a1,1,0,0,0-1,1v2a1,1,0,0,0,1,1h2A1,1,0,0,0,51,59Zm0-8V39a1,1,0,0,0-1-1H48a1,1,0,0,0-1,1V51a1,1,0,0,0,1,1h2A1,1,0,0,0,51,51Z" style="fill:#58abfb"/><path d="M49,28A21,21,0,1,1,28,49,21,21,0,0,1,49,28ZM65,49A16,16,0,1,0,49,65,16,16,0,0,0,65,49Z" style="fill:#fff"/><path d="M49,70A21,21,0,1,0,28,49,21,21,0,0,0,49,70Zm3.5,9L52,75H46l-.5,4L45,83l.6,5.99c-.2.01-.4.01-.6.01A43.956,43.956,0,0,1,8.86,70.1L9,70V55l3-2,2,1,2-2,2,2h3V52l2-1V49l-2-2H19l-3-2V42l1-1V38l-1-1H14l-2-2H9V24H81V70l.14.1A43.964,43.964,0,0,1,52.56,88.35L52.5,88l.5-5Z" style="fill:#fff"/><path d="M81.21,20a44.009,44.009,0,0,1-.07,50.1L81,70V20Z" style="fill:#fff"/><path d="M74,11.91V12H16v-.09a44,44,0,0,1,58,0Z" style="fill:#fff"/><path d="M9,24V35h3l2,2h2l1,1v3l-1,1v3l3,2h2l2,2v2l-2,1v2H18l-2-2-2,2-2-1L9,55V70l-.14.1A44.006,44.006,0,0,1,9,19.7Z" style="fill:#fff"/><circle cx="23" cy="18" r="2" style="fill:#fff"/><circle cx="15" cy="18" r="2" style="fill:#fff"/><path d="M81,20v4H68V12H79a2.006,2.006,0,0,1,2,2Z" style="fill:#58abfb"/><path d="M68,12V24H9V14a2.006,2.006,0,0,1,2-2H68ZM25,18a2,2,0,1,0-2,2A2.006,2.006,0,0,0,25,18Zm-8,0a2,2,0,1,0-2,2A2.006,2.006,0,0,0,17,18Z" style="fill:#58abfb"/><path d="M82.032,19.431,82,19.453V14a3,3,0,0,0-3-3H74.471a44.979,44.979,0,0,0-58.942,0H11a3,3,0,0,0-3,3v5.394A45,45,0,0,0,45,90c.216,0,.433,0,.613-.01a44.324,44.324,0,0,0,7.117-.655A45.235,45.235,0,0,0,81.96,70.672a45.007,45.007,0,0,0,.072-51.241ZM88,45a42.708,42.708,0,0,1-6,21.916V23.089A42.748,42.748,0,0,1,88,45ZM80,14v9H69V13H79A1,1,0,0,1,80,14ZM45,2a42.95,42.95,0,0,1,26.309,9H18.691A42.95,42.95,0,0,1,45,2ZM11,13H67V23H10V14A1,1,0,0,1,11,13ZM8,23.079V35a1,1,0,0,0,1,1h2.586l1.707,1.707A1,1,0,0,0,14,38h1.586l.414.414v2.172l-.707.707A1,1,0,0,0,15,42v3a1,1,0,0,0,.445.832l3,2A1.006,1.006,0,0,0,19,48h1.586L22,49.414v.968l-1.447.723A1,1,0,0,0,20,52v1H18.414l-1.707-1.707a1,1,0,0,0-1.414,0l-1.49,1.49-1.356-.678a1,1,0,0,0-1,.063l-3,2A1,1,0,0,0,8,55V66.916A43.035,43.035,0,0,1,8,23.079ZM49,69A20,20,0,1,1,69,49,20.023,20.023,0,0,1,49,69Zm2.117,7,.25,2H46.633l.25-2ZM46.5,87.961l-.5-4.949L46.383,80h5.234l.377,3.012L51.545,87.5A42.545,42.545,0,0,1,46.5,87.961Zm7.091-.836L54,83.1a1.048,1.048,0,0,0,0-.224l-1-8A1,1,0,0,0,52,74H50V70.975a22,22,0,1,0-2,0V74H46a1,1,0,0,0-.992.876l-1,8a1.048,1.048,0,0,0,0,.224l.493,4.885A43.054,43.054,0,0,1,10,69.959V55.535l2.072-1.381,1.481.741a1,1,0,0,0,1.154-.188L16,53.414l1.293,1.293A1,1,0,0,0,18,55h3a1,1,0,0,0,1-1V52.618l1.447-.723A1,1,0,0,0,24,51V49a1,1,0,0,0-.293-.707l-2-2A1,1,0,0,0,21,46H19.3L17,44.465V42.414l.707-.707A1,1,0,0,0,18,41V38a1,1,0,0,0-.293-.707l-1-1A1,1,0,0,0,16,36H14.414l-1.707-1.707A1,1,0,0,0,12,34H10V25H80V69.964A43.244,43.244,0,0,1,53.593,87.125Z" style="fill:#107be8"/><path d="M15,21a3,3,0,1,0-3-3A3,3,0,0,0,15,21Zm0-4a1,1,0,1,1-1,1A1,1,0,0,1,15,17Z" style="fill:#107be8"/><path d="M23,21a3,3,0,1,0-3-3A3,3,0,0,0,23,21Zm0-4a1,1,0,1,1-1,1A1,1,0,0,1,23,17Z" style="fill:#107be8"/><rect x="72" y="15" width="5" height="2" style="fill:#107be8"/><rect x="72" y="19" width="5" height="2" style="fill:#107be8"/><path d="M49,32A17,17,0,1,0,66,49,17.019,17.019,0,0,0,49,32Zm0,32A15,15,0,1,1,64,49,15.017,15.017,0,0,1,49,64Z" style="fill:#107be8"/><path d="M50,37H48a2,2,0,0,0-2,2V51a2,2,0,0,0,2,2h2a2,2,0,0,0,2-2V39A2,2,0,0,0,50,37Zm0,14-2,0V39h2Z" style="fill:#107be8"/><path d="M50,55H48a2,2,0,0,0-2,2v2a2,2,0,0,0,2,2h2a2,2,0,0,0,2-2V57A2,2,0,0,0,50,55Zm0,4-2,0V57h2Z" style="fill:#107be8"/></g></g></svg>
