<?xml version="1.0" encoding="iso-8859-1"?>
<!-- Generator: Adobe Illustrator 19.0.0, SVG Export Plug-In . SVG Version: 6.00 Build 0)  -->
<svg version="1.1" id="Capa_1" xmlns="http://www.w3.org/2000/svg" xmlns:xlink="http://www.w3.org/1999/xlink" x="0px" y="0px"
	 viewBox="0 0 512 512" style="enable-background:new 0 0 512 512;" xml:space="preserve">
<path style="fill:#79A1E8;" d="M162.775,308.146C22.138,279.105,17.141,55.758,162.976,50.007
	C301.054,44.563,398.429-41.68,459.562,25.47c84.98,93.343,6.883,139.111-52.704,252.512
	C339.669,405.85,280.006,332.354,162.775,308.146z"/>
<path style="fill:#473CBA;" d="M233.574,36.46l-1.955-22.222h-22.726l-2.246,22.337c-3.025,0.609-5.978,1.414-8.847,2.402
	l-12.935-18.453l-19.681,11.363l9.317,20.676c-2.212,1.952-4.299,4.043-6.247,6.259l-20.878-9.723L136.012,68.78l18.677,13.442
	c-0.95,2.787-1.727,5.654-2.319,8.587l-23.032,2.027v22.726l22.922,2.305c0.605,3.134,1.418,6.193,2.429,9.161l-18.677,13.442
	l11.363,19.682l20.878-9.723c1.975,2.247,4.092,4.365,6.338,6.34l-9.408,20.879l19.681,11.363l13.095-18.681
	c2.818,0.963,5.718,1.749,8.687,2.346l2.246,22.337h22.726l1.955-22.222c3.086-0.592,6.1-1.385,9.025-2.371l12.971,18.023
	l19.681-11.363l-9.331-20.037c2.428-2.11,4.706-4.386,6.82-6.809l19.827,8.934l11.363-19.682l-17.794-12.473
	c1.024-3.007,1.844-6.109,2.451-9.287l21.525-2.165V92.836l-21.638-1.904c-0.594-2.971-1.377-5.874-2.338-8.695l17.794-12.473
	l-11.363-19.681h-9.4l-10.426,8.934c-2.087-2.392-4.334-4.64-6.727-6.726l9.237-19.836l-19.681-11.363h-9.4L233.574,36.46z
	 M222.171,126.249c-13.366,1.054-24.437-10.017-23.384-23.383c0.828-10.515,9.347-19.034,19.862-19.864
	c13.367-1.055,24.439,10.017,23.385,23.384C241.205,116.901,232.686,125.42,222.171,126.249z"/>
<path style="fill:#D7ECF9;" d="M300.713,115.562V92.836l-21.638-1.904c-0.594-2.971-1.377-5.874-2.338-8.695l17.794-12.473
	l-11.363-19.681l-19.827,8.934c-2.087-2.392-4.334-4.64-6.727-6.726l9.237-19.836l-19.681-11.363l-12.807,17.794
	c-2.977-1.012-6.046-1.823-9.19-2.427l-1.955-22.222h-22.726l-2.246,22.337c-3.025,0.609-5.978,1.414-8.847,2.402l-12.935-18.453
	l-19.681,11.363l9.317,20.676c-2.212,1.952-4.299,4.043-6.247,6.259l-20.878-9.723L126.612,68.78l18.677,13.442
	c-0.95,2.787-1.727,5.654-2.319,8.587l-23.032,2.027v22.726l22.922,2.305c0.605,3.134,1.418,6.193,2.429,9.161l-18.677,13.442
	l11.363,19.682l20.878-9.723c1.975,2.247,4.092,4.365,6.338,6.34l-9.408,20.879l19.681,11.363l13.095-18.681
	c2.818,0.963,5.718,1.749,8.687,2.346l2.246,22.337h22.726l1.955-22.222c3.086-0.592,6.1-1.385,9.025-2.371l12.971,18.023
	l19.681-11.363l-9.331-20.037c2.428-2.11,4.706-4.386,6.82-6.809l19.827,8.934l11.363-19.682l-17.794-12.473
	c1.024-3.007,1.844-6.109,2.451-9.287L300.713,115.562z M212.77,126.249c-13.366,1.054-24.437-10.017-23.384-23.383
	c0.828-10.515,9.347-19.034,19.862-19.864c13.367-1.055,24.439,10.017,23.385,23.384C231.804,116.901,223.285,125.42,212.77,126.249
	z"/>
<g>
	<path style="fill:#4B31AA;" d="M142.969,90.81c0.141-0.699,0.294-1.394,0.457-2.086l-14.339,1.262
		c-1.279,0.113-2.297,1.056-2.548,2.27L142.969,90.81z"/>
	<path style="fill:#4B31AA;" d="M129.051,118.41l14.225,1.431c-0.146-0.655-0.288-1.311-0.416-1.973l-16.296-1.639
		C126.841,117.388,127.818,118.286,129.051,118.41z"/>
</g>
<path style="fill:#4B31AA;" d="M310.113,95.698h-9.4c-1.58,0-2.862-1.281-2.862-2.862c0-1.58,1.281-2.862,2.862-2.862h9.4
	c1.58,0,2.862,1.281,2.862,2.862C312.975,94.417,311.694,95.698,310.113,95.698z"/>
<path style="fill:#4B31AA;" d="M310.113,118.425h-9.4c-1.58,0-2.862-1.281-2.862-2.862s1.281-2.862,2.862-2.862h9.4
	c1.58,0,2.862,1.281,2.862,2.862S311.694,118.425,310.113,118.425z"/>
<path style="fill:#B3D4E5;" d="M300.713,115.562V92.836l-21.638-1.904c-0.594-2.971-1.377-5.874-2.337-8.695l17.794-12.473
	l-11.363-19.681l-19.827,8.934c-0.885-1.014-1.805-1.997-2.746-2.958l-33.75,33.75c3.999,4.272,6.295,10.158,5.788,16.577
	c-0.829,10.515-9.348,19.034-19.863,19.863c-6.42,0.506-12.305-1.79-16.577-5.788l-33.749,33.749
	c0.894,0.876,1.806,1.733,2.746,2.56l-9.409,20.879l19.681,11.363l13.095-18.681c2.818,0.963,5.718,1.749,8.687,2.346l2.246,22.337
	h22.726l1.956-22.222c3.086-0.592,6.1-1.385,9.025-2.371l12.971,18.023l19.681-11.363l-9.331-20.037
	c2.427-2.11,4.706-4.386,6.82-6.809l19.827,8.934l11.363-19.682l-17.794-12.473c1.024-3.007,1.844-6.109,2.451-9.287
	L300.713,115.562z"/>
<g>
	<path style="fill:#4B31AA;" d="M310.364,89.986l-19.537-1.719c-0.382-1.649-0.821-3.286-1.316-4.898l16.063-11.26
		c1.215-0.852,1.578-2.489,0.836-3.774l-11.363-19.681c-0.511-0.885-1.456-1.431-2.478-1.431h-9.401
		c-0.011,0-0.022,0.006-0.034,0.007c-0.384,0.004-0.772,0.079-1.142,0.246l-11.408,5.14c-0.359-0.347-0.715-0.697-1.081-1.035
		l8.343-17.916c0.626-1.344,0.122-2.945-1.163-3.686l-19.681-11.363c-0.435-0.251-0.929-0.384-1.431-0.384h-9.4
		c-0.857,0-1.67,0.384-2.213,1.047l-8.147,9.94l-1.341-15.231c-0.13-1.478-1.367-2.611-2.851-2.611h-9.4h-13.326h-9.4
		c-1.469,0-2.7,1.113-2.847,2.575l-1.618,16.085l-7.819-11.155c-0.542-0.774-1.403-1.197-2.289-1.214
		c-0.02-0.001-0.033-0.005-0.054-0.005h-9.4c-0.102,0-0.193,0.008-0.275,0.023c-0.396,0.038-0.79,0.15-1.156,0.36l-19.681,11.363
		c-1.273,0.734-1.782,2.314-1.178,3.654l8.463,18.781c-0.175,0.163-0.343,0.334-0.516,0.5l-12.538-5.838
		c-0.372-0.173-0.763-0.252-1.15-0.259c-0.02-0.001-0.038-0.008-0.058-0.008h-9.4c-0.03,0-0.057,0.01-0.086,0.013
		c-0.961,0.03-1.881,0.533-2.392,1.418L124.133,67.35c-0.735,1.273-0.386,2.895,0.806,3.754l16.984,12.223
		c-0.488,1.587-0.924,3.197-1.302,4.817l-20.935,1.842c-1.478,0.13-2.611,1.367-2.611,2.851v22.726c0,1.469,1.113,2.701,2.575,2.847
		l20.836,2.096c0.41,1.83,0.89,3.641,1.436,5.419l-16.984,12.223c-1.193,0.858-1.541,2.481-0.806,3.754l11.363,19.682
		c0.496,0.86,1.377,1.359,2.308,1.416c0.056,0.006,0.111,0.015,0.17,0.015h9.4c0.025,0,0.049-0.006,0.074-0.007
		c0.383-0.009,0.768-0.089,1.134-0.261l12.538-5.839c0.203,0.194,0.4,0.393,0.605,0.584l-8.552,18.981
		c-0.604,1.34-0.095,2.92,1.178,3.654l19.681,11.363c0.178,0.103,0.364,0.18,0.553,0.241c0.192,0.089,0.411,0.142,0.668,0.142h9.61
		c0.018,0,0.034-0.003,0.052-0.004c0.061-0.001,0.122-0.009,0.182-0.014c0.021-0.003,0.043-0.004,0.063-0.008
		c0.798-0.084,1.554-0.491,2.046-1.193l7.844-11.19l1.593,15.836c0.147,1.462,1.378,2.575,2.847,2.575h9.4h13.326h9.4
		c1.483,0,2.721-1.133,2.851-2.611l1.426-16.199l7.952,11.05c0.547,0.76,1.403,1.172,2.282,1.185
		c0.014,0.001,0.027,0.005,0.041,0.005h9.4c0.044,0,0.087-0.01,0.13-0.014c0.445-0.02,0.891-0.133,1.3-0.369l19.681-11.363
		c1.285-0.741,1.789-2.342,1.163-3.686l-8.435-18.114c0.397-0.366,0.783-0.746,1.171-1.123l11.409,5.141
		c0.361,0.163,0.738,0.239,1.112,0.248c0.022,0.001,0.042,0.005,0.064,0.005h9.401c0.09,0,0.164-0.007,0.231-0.018
		c0.909-0.074,1.762-0.574,2.247-1.413l11.363-19.681c0.742-1.285,0.379-2.923-0.836-3.774l-16.063-11.26
		c0.555-1.81,1.042-3.656,1.455-5.519l19.434-1.954c1.462-0.147,2.575-1.378,2.575-2.847V92.836
		C312.975,91.353,311.842,90.116,310.364,89.986z M290.916,52.945l8.058,13.958h-2.791l-8.059-13.958
		C288.124,52.945,290.916,52.945,290.916,52.945z M268.66,31.954l2.891,1.669l-7.361,15.806h-3.087l7.342-15.766
		C268.704,33.11,268.76,32.516,268.66,31.954z M228.998,17.1l1.579,17.943c-1.237-0.346-2.482-0.672-3.739-0.953l-1.495-16.99
		L228.998,17.1L228.998,17.1z M184.025,24.313l7.502,10.702c-0.67,0.187-1.339,0.376-2.002,0.583l-7.215-10.294L184.025,24.313z
		 M184.025,185.222l-1.716-0.991l7.379-10.526c0.664,0.204,1.334,0.393,2.004,0.579L184.025,185.222z M228.998,192.151h-3.655
		l1.495-16.991c1.259-0.281,2.503-0.606,3.739-0.952L228.998,192.151z M271.551,175.912l-2.891,1.669
		c0.101-0.562,0.044-1.156-0.214-1.709l-7.436-15.967h3.087L271.551,175.912z M299.079,142.168l-7.695,13.328l-2.216-0.998
		l7.178-12.433L299.079,142.168z M297.851,112.974l-18.95,1.906c-1.26,0.126-2.287,1.066-2.524,2.311
		c-0.578,3.025-1.368,6.02-2.349,8.9c-0.411,1.205,0.024,2.536,1.066,3.266l15.648,10.969l-8.759,15.17l-17.466-7.871
		c-1.15-0.518-2.503-0.223-3.333,0.727c-2.023,2.321-4.224,4.518-6.541,6.531c-0.963,0.838-1.256,2.211-0.717,3.368l8.224,17.661
		l-15.17,8.758l-11.458-15.922c-0.734-1.019-2.046-1.44-3.237-1.04c-2.797,0.942-5.708,1.708-8.651,2.272
		c-1.256,0.242-2.2,1.286-2.311,2.56l-1.725,19.611h-17.517l-1.988-19.761c-0.125-1.25-1.052-2.272-2.283-2.52
		c-2.816-0.567-5.617-1.323-8.326-2.248c-1.205-0.412-2.538,0.023-3.269,1.066l-11.591,16.534l-15.17-8.758l8.344-18.519
		c0.516-1.147,0.225-2.495-0.719-3.325c-2.145-1.886-4.189-3.932-6.078-6.081c-0.839-0.954-2.208-1.241-3.358-0.705l-18.503,8.617
		l-8.758-15.171l16.576-11.929c1.022-0.736,1.443-2.054,1.037-3.247c-0.967-2.836-1.75-5.79-2.328-8.78
		c-0.24-1.242-1.266-2.178-2.524-2.304l-20.347-2.047V95.457l20.421-1.797c1.264-0.111,2.304-1.041,2.554-2.284
		c0.562-2.782,1.309-5.551,2.223-8.231c0.407-1.192-0.015-2.51-1.037-3.246L130.384,67.97l8.759-15.17l18.502,8.616
		c1.149,0.535,2.519,0.249,3.357-0.704c1.861-2.118,3.877-4.137,5.991-6.003c0.941-0.831,1.23-2.177,0.715-3.322l-8.253-18.315
		l15.17-8.758l11.431,16.307c0.732,1.045,2.069,1.48,3.275,1.063c2.764-0.952,5.617-1.726,8.479-2.302
		c1.231-0.248,2.158-1.27,2.283-2.519l1.988-19.762h17.517l1.725,19.611c0.112,1.274,1.056,2.319,2.311,2.56
		c2.993,0.574,5.957,1.356,8.809,2.325c1.191,0.405,2.508-0.016,3.243-1.037l11.295-15.693l15.17,8.758l-8.131,17.46
		c-0.538,1.155-0.247,2.527,0.713,3.365c2.285,1.993,4.456,4.163,6.451,6.451c0.83,0.949,2.185,1.245,3.333,0.727l17.466-7.871
		l8.759,15.17l-15.648,10.969c-1.043,0.73-1.477,2.061-1.066,3.266c0.922,2.705,1.675,5.509,2.241,8.333
		c0.249,1.246,1.29,2.178,2.555,2.289l19.027,1.675L297.851,112.974L297.851,112.974z M285.17,120.002
		c-0.331,1.402-0.72,2.783-1.136,4.15h-3.431c0.35-1.253,0.679-2.514,0.962-3.788L285.17,120.002z M285.009,88.581l-3.583-0.316
		c-0.258-1.114-0.552-2.219-0.862-3.318l3.384-0.137C284.334,86.055,284.695,87.311,285.009,88.581z M307.251,112.974l-3.677,0.37
		v-18.21l3.677,0.324V112.974z"/>
	<path style="fill:#4B31AA;" d="M228.373,87.262c-5.09-5.089-12.141-7.684-19.35-7.113c-11.885,0.937-21.554,10.607-22.49,22.492
		c-0.568,7.207,2.026,14.259,7.114,19.347c4.627,4.627,10.877,7.191,17.391,7.191c0.65,0,1.302-0.026,1.956-0.077
		c11.885-0.937,21.555-10.606,22.492-22.491C236.056,99.404,233.463,92.352,228.373,87.262z M192.239,103.091
		c0.525-6.65,4.624-12.382,10.34-15.278c-3.74,3.959-6.197,9.136-6.646,14.828c-0.548,6.946,1.849,13.743,6.578,18.782
		c-1.762-0.889-3.391-2.055-4.817-3.481C193.792,114.039,191.803,108.625,192.239,103.091z M229.781,106.161
		c-0.632,8.019-6.455,14.717-14.055,16.694c-3.235-0.828-6.221-2.503-8.631-4.913c-3.904-3.903-5.892-9.316-5.456-14.851
		c0.633-8.022,6.459-14.722,14.062-16.697c3.232,0.831,6.216,2.507,8.624,4.915C228.229,95.213,230.218,100.626,229.781,106.161z"/>
</g>
<path style="fill:#FBB03B;" d="M211.024,143.976c-21.698,0-39.35-17.652-39.35-39.35s17.652-39.35,39.35-39.35
	s39.35,17.652,39.35,39.35S232.722,143.976,211.024,143.976z M211.024,80.3c-13.413,0-24.326,10.912-24.326,24.326
	s10.912,24.326,24.326,24.326c13.413,0,24.326-10.912,24.326-24.326S224.438,80.3,211.024,80.3z"/>
<path style="fill:#E07E1E;" d="M239.495,77.505l-10.619,10.619c4.014,4.339,6.474,10.138,6.474,16.502
	c0,13.414-10.912,24.326-24.326,24.326c-6.364,0-12.162-2.459-16.501-6.474l-10.619,10.619c7.065,6.733,16.614,10.879,27.12,10.879
	c21.698,0,39.35-17.653,39.35-39.35C250.374,94.119,246.228,84.569,239.495,77.505z"/>
<g>
	<ellipse style="fill:#473CBA;" cx="279.383" cy="507.186" rx="54.884" ry="4.815"/>
	<ellipse style="fill:#473CBA;" cx="76.419" cy="470.422" rx="32.709" ry="3.728"/>
	<ellipse style="fill:#473CBA;" cx="410.42" cy="470.422" rx="32.709" ry="3.728"/>
	<rect x="400" y="97.738" style="fill:#473CBA;" width="37" height="350.531"/>
</g>
<rect x="383" y="97.738" style="fill:#E1F0FA;" width="37" height="350.531"/>
<polygon style="fill:#CFDDF7;" points="383,374 383,448.269 420,448.269 420,337 "/>
<rect x="69" y="97.738" style="fill:#473CBA;" width="37" height="350.531"/>
<rect x="52" y="97.738" style="fill:#E1F0FA;" width="37" height="350.531"/>
<polygon style="fill:#CFDDF7;" points="52,384.333 52,448.269 89,448.269 89,347.333 "/>
<rect x="435" y="135.088" style="fill:#473CBA;" width="39" height="150.49"/>
<g>
	<rect x="19" y="135.088" style="fill:#F15A24;" width="432" height="150.49"/>
	<polygon style="fill:#F15A24;" points="19,135.089 19,285.579 181.299,285.579 296.177,135.089 	"/>
</g>
<polygon style="fill:#C93F14;" points="451,135.089 296.177,135.089 181.299,285.579 451,285.579 "/>
<g>
	<polygon style="fill:#CFDDF7;" points="258.391,285.579 313.391,285.579 426.258,135.089 371.258,135.089 	"/>
	<polygon style="fill:#CFDDF7;" points="416.513,285.579 451,239.596 451,166.263 361.513,285.579 	"/>
</g>
<polygon style="fill:#FFFFFF;" points="155.268,285.579 210.268,285.579 323.136,135.089 268.136,135.089 "/>
<polygon style="fill:#CFDDF7;" points="323.136,135.089 296.177,135.089 181.299,285.579 210.268,285.579 "/>
<g>
	<polygon style="fill:#FFFFFF;" points="52.146,285.579 107.146,285.579 220.013,135.089 165.013,135.089 	"/>
	<polygon style="fill:#FFFFFF;" points="19,192.276 19,265.61 116.891,135.089 61.891,135.089 	"/>
</g>
<path style="fill:#4B31AA;" d="M474,131.089h-33V97.738c0-2.209-1.791-4-4-4h-54c-2.209,0-4,1.791-4,4v33.351H110V97.738
	c0-2.209-1.791-4-4-4H52c-2.209,0-4,1.791-4,4v33.351H19c-2.209,0-4,1.791-4,4v150.49c0,2.209,1.791,4,4,4h29v158.69
	c0,2.209,1.791,4,4,4h54c2.209,0,4-1.791,4-4v-158.69h269v158.69c0,2.209,1.791,4,4,4h54c2.209,0,4-1.791,4-4v-158.69h33
	c2.209,0,4-1.791,4-4v-150.49C478,132.88,476.209,131.089,474,131.089z M433,101.738v29.351h-9v-29.351H433z M387,101.738h29v29.351
	h-29V101.738z M212.013,139.089l-106.867,142.49h-45l106.867-142.49H212.013z M102,101.738v29.351h-9v-29.351H102z M56,101.738h29
	v29.351H56C56,131.089,56,101.738,56,101.738z M23,139.089h30.89L23,180.276V139.089z M23,193.609l40.891-54.52h45L23,253.609
	V193.609z M23,266.943l95.891-127.854h38.121L50.145,281.579H23V266.943z M56,444.269v-154.69h29v154.69H56z M102,444.269h-9
	v-154.69h9V444.269z M115.146,281.579l106.867-142.49h38.122l-106.868,142.49H115.146z M163.268,281.579l106.868-142.49h45
	l-106.868,142.49H163.268z M218.268,281.579l106.868-142.49h38.121L256.39,281.579H218.268z M266.391,281.579l106.867-142.49h45
	l-106.867,142.49H266.391z M387,444.269v-154.69h29v154.69H387z M433,444.269h-9v-154.69h9V444.269z M447,281.579h-22.487
	L447,251.596V281.579z M447,238.263l-32.487,43.316h-45L447,178.263V238.263z M447,164.929l-87.488,116.65h-38.121l106.867-142.49
	h16.349H447L447,164.929L447,164.929z M470,281.579h-15v-142.49h15V281.579z"/>
<polygon style="fill:#F9D015;" points="326.63,432.726 232.527,432.726 264.582,264.841 294.575,264.841 "/>
<polygon style="fill:#FBB03B;" points="326.63,432.726 305.891,324.109 240.847,389.153 232.527,432.726 "/>
<rect x="219.756" y="424.356" style="fill:#6382C6;" width="119.644" height="26.977"/>
<polygon style="fill:#FFFFFF;" points="248.792,347.54 310.365,347.54 305.449,321.794 253.708,321.794 "/>
<polygon style="fill:#CFDDF7;" points="305.891,324.109 282.46,347.54 310.365,347.54 "/>
<path style="fill:#4B31AA;" d="M339.401,420.355h-11.06l-14.046-73.564l0-0.001l-3.419-17.908l-12.371-64.79
	c-0.359-1.886-2.009-3.25-3.929-3.25h-29.993c-1.92,0-3.569,1.364-3.929,3.25l-12.371,64.79l-3.419,17.908l0,0.001l-14.046,73.564
	h-11.061c-2.209,0-4,1.791-4,4v26.977c0,2.209,1.791,4,4,4H339.4c2.209,0,4-1.791,4-4v-26.977
	C343.401,422.146,341.61,420.355,339.401,420.355z M267.891,268.842h23.376l9.347,48.952h-42.069L267.891,268.842z M255.874,331.781
	l1.143-5.987h45.124l1.143,5.987l2.245,11.759h-51.901L255.874,331.781z M252.101,351.54h54.956l13.139,68.815h-81.234
	L252.101,351.54z M335.401,447.333H223.756v-18.978h111.644V447.333z"/>
<g>
</g>
<g>
</g>
<g>
</g>
<g>
</g>
<g>
</g>
<g>
</g>
<g>
</g>
<g>
</g>
<g>
</g>
<g>
</g>
<g>
</g>
<g>
</g>
<g>
</g>
<g>
</g>
<g>
</g>
</svg>
